<mxfile host="app.diagrams.net" modified="2024-08-08T05:06:39.526Z" agent="Mozilla/5.0 (Windows NT 10.0; Win64; x64) AppleWebKit/537.36 (KHTML, like Gecko) Chrome/126.0.0.0 Safari/537.36 Edg/126.0.0.0" version="24.6.5" etag="tL_XLiGJf5mWybhiFEg_" type="github">
  <diagram name="Page-1" id="GF-KGd_AgGt_R5nH1_gw">
    <mxGraphModel>
      <root>
        <mxCell id="0" />
        <mxCell id="1" parent="0" />
      </root>
    </mxGraphModel>
  </diagram>
</mxfile>
